# xmcd
# Track frame offsets:
# 150
# 12954
# 28066
# 45325
# 61064
# 81192
# 101389
# 113853
# 129991
# 144698
# 161503
# 174039
# 186991
# 203760
# 221925
# 233744
# 247033
# 262559
# 272974
# 286426
#
# Disc length: 4007 seconds
# Revision: 0
# Processed by: cddbd v1.5.2PL0 Copyright (c) Steve Scherf et al.
# Submitted via: VisiTrax 2.11.3.279 - For more info visit www.synapsa.com
#
DISCID=140fa514
DTITLE=Dawson. Smoky - A Life In Song
DYEAR=1900
DGENRE=Country
TTITLE0=Jindawarrabell
TTITLE1=Bombs Fell Down On Darwin. The
TTITLE2=Overland Telegraph Line
TTITLE3=Fierce Red Steer. The
TTITLE4=My Wondrefull Four-Legged Friend
TTITLE5=My Heart Is Where The Roper Flows Tonight
TTITLE6=Last Of The Kelly's. The
TTITLE7=Light's Of Cobb and Co. The
TTITLE8=Old Bullock Bell. The
TTITLE9=Little Old Log Cabin In The Shadow Of The Pines
TTITLE10=Country Music Recipe
TTITLE11=Cullenbenbong
TTITLE12=Old Soldiers Never Forget
TTITLE13=Memories Of Pinnibar
TTITLE14=I'll Paint You A Song
TTITLE15=Trail Of The Pioneers
TTITLE16=Somewhere
TTITLE17=He Is The Light Of My World
TTITLE18=My Sunshine Girl
TTITLE19=Working On A Five Year Plan
EXTD=
EXTT0=
EXTT1=
EXTT2=
EXTT3=
EXTT4=
EXTT5=
EXTT6=
EXTT7=
EXTT8=
EXTT9=
EXTT10=
EXTT11=
EXTT12=
EXTT13=
EXTT14=
EXTT15=
EXTT16=
EXTT17=
EXTT18=
EXTT19=
PLAYORDER=
